# xmcd CD database file
#
# Track frame offsets:
#	150
#	26425
#	44327
#	66907
#	85597
#	99320
#	117295
#	137642
#	158284
#	182372
#
# Disc length: 2804 seconds
#
# Revision: 0
# Processed by: cddbd v1.5.1PL0 Copyright (c) Steve Scherf et al.
# Submitted via: CDex 1.51
#
DISCID=6d0af20a
DTITLE=Conjunto Chaney - Lo mejor de Chamey
DYEAR=2000
DGENRE=Salsa
TTITLE0=Detalles
TTITLE1=Esta noche te voy a estrenar
TTITLE2=Desesperado
TTITLE3=Nicolasa
TTITLE4=Campesino soy
TTITLE5=El dia y el jibarito
TTITLE6=He sabido que te amaba
TTITLE7=Concavo y convexo
TTITLE8=Acariciame
TTITLE9=Estas segura
EXTD=YEAR: 2000
EXTT0=
EXTT1=
EXTT2=
EXTT3=
EXTT4=
EXTT5=
EXTT6=
EXTT7=
EXTT8=
EXTT9=
PLAYORDER=
